<?xml version="1.0" encoding="UTF-8" standalone="no"?>
<!DOCTYPE svg PUBLIC "-//W3C//DTD SVG 1.1//EN"
 "http://www.w3.org/Graphics/SVG/1.1/DTD/svg11.dtd">
<!-- Generated by graphviz version 2.43.0 (0)
 -->
<!-- Title: %3 Pages: 1 -->
<svg width="604pt" height="404pt"
 viewBox="0.00 0.00 603.59 404.00" xmlns="http://www.w3.org/2000/svg" xmlns:xlink="http://www.w3.org/1999/xlink">
<g id="graph0" class="graph" transform="scale(1 1) rotate(0) translate(4 400)">
<title>%3</title>
<polygon fill="white" stroke="transparent" points="-4,4 -4,-400 599.59,-400 599.59,4 -4,4"/>
<!-- omega -->
<g id="node1" class="node">
<title>omega</title>
<ellipse fill="none" stroke="grey" cx="235.69" cy="-378" rx="41.69" ry="18"/>
<text text-anchor="middle" x="235.69" y="-374.3" font-family="Times,serif" font-size="14.00">omega</text>
</g>
<!-- alpha -->
<g id="node2" class="node">
<title>alpha</title>
<ellipse fill="none" stroke="#000000" cx="196.69" cy="-234" rx="36.29" ry="18"/>
<text text-anchor="middle" x="196.69" y="-230.3" font-family="Times,serif" font-size="14.00">alpha</text>
</g>
<!-- omega&#45;&gt;alpha -->
<g id="edge1" class="edge">
<title>omega&#45;&gt;alpha</title>
<path fill="none" stroke="black" d="M230.99,-359.87C224.31,-335.56 212.02,-290.82 204.11,-262.01"/>
<polygon fill="black" stroke="black" points="207.44,-260.91 201.42,-252.19 200.69,-262.76 207.44,-260.91"/>
</g>
<!-- beta -->
<g id="node3" class="node">
<title>beta</title>
<ellipse fill="none" stroke="grey" cx="275.69" cy="-306" rx="31.4" ry="18"/>
<text text-anchor="middle" x="275.69" y="-302.3" font-family="Times,serif" font-size="14.00">beta</text>
</g>
<!-- omega&#45;&gt;beta -->
<g id="edge2" class="edge">
<title>omega&#45;&gt;beta</title>
<path fill="none" stroke="black" d="M245.17,-360.41C249.96,-352.04 255.86,-341.71 261.2,-332.37"/>
<polygon fill="black" stroke="black" points="264.36,-333.89 266.28,-323.47 258.28,-330.42 264.36,-333.89"/>
</g>
<!-- alphaprime -->
<g id="node5" class="node">
<title>alphaprime</title>
<ellipse fill="none" stroke="black" cx="63.69" cy="-162" rx="63.89" ry="18"/>
<text text-anchor="middle" x="63.69" y="-158.3" font-family="Times,serif" font-size="14.00">alphaprime</text>
</g>
<!-- alpha&#45;&gt;alphaprime -->
<g id="edge4" class="edge">
<title>alpha&#45;&gt;alphaprime</title>
<path fill="none" stroke="black" d="M172.61,-220.32C152.87,-209.94 124.58,-195.04 101.78,-183.04"/>
<polygon fill="black" stroke="black" points="103.18,-179.83 92.7,-178.27 99.92,-186.02 103.18,-179.83"/>
</g>
<!-- alphasec -->
<g id="node7" class="node">
<title>alphasec</title>
<ellipse fill="none" stroke="black" cx="196.69" cy="-162" rx="51.19" ry="18"/>
<text text-anchor="middle" x="196.69" y="-158.3" font-family="Times,serif" font-size="14.00">alphasec</text>
</g>
<!-- alpha&#45;&gt;alphasec -->
<g id="edge6" class="edge">
<title>alpha&#45;&gt;alphasec</title>
<path fill="none" stroke="black" d="M196.69,-215.7C196.69,-207.98 196.69,-198.71 196.69,-190.11"/>
<polygon fill="black" stroke="black" points="200.19,-190.1 196.69,-180.1 193.19,-190.1 200.19,-190.1"/>
</g>
<!-- gamma -->
<g id="node4" class="node">
<title>gamma</title>
<ellipse fill="none" stroke="grey" cx="375.69" cy="-234" rx="44.69" ry="18"/>
<text text-anchor="middle" x="375.69" y="-230.3" font-family="Times,serif" font-size="14.00">gamma</text>
</g>
<!-- beta&#45;&gt;gamma -->
<g id="edge3" class="edge">
<title>beta&#45;&gt;gamma</title>
<path fill="none" stroke="black" d="M294.98,-291.5C309.47,-281.35 329.6,-267.27 346.13,-255.7"/>
<polygon fill="black" stroke="black" points="348.21,-258.51 354.4,-249.91 344.2,-252.78 348.21,-258.51"/>
</g>
<!-- betaprime -->
<g id="node9" class="node">
<title>betaprime</title>
<ellipse fill="none" stroke="black" cx="275.69" cy="-90" rx="58.49" ry="18"/>
<text text-anchor="middle" x="275.69" y="-86.3" font-family="Times,serif" font-size="14.00">betaprime</text>
</g>
<!-- beta&#45;&gt;betaprime -->
<g id="edge8" class="edge">
<title>beta&#45;&gt;betaprime</title>
<path fill="none" stroke="black" d="M275.69,-287.85C275.69,-250.83 275.69,-163.18 275.69,-118.39"/>
<polygon fill="black" stroke="black" points="279.19,-118.23 275.69,-108.23 272.19,-118.23 279.19,-118.23"/>
</g>
<!-- gammaprime -->
<g id="node11" class="node">
<title>gammaprime</title>
<ellipse fill="none" stroke="black" cx="375.69" cy="-162" rx="72.29" ry="18"/>
<text text-anchor="middle" x="375.69" y="-158.3" font-family="Times,serif" font-size="14.00">gammaprime</text>
</g>
<!-- gamma&#45;&gt;gammaprime -->
<g id="edge10" class="edge">
<title>gamma&#45;&gt;gammaprime</title>
<path fill="none" stroke="black" d="M375.69,-215.7C375.69,-207.98 375.69,-198.71 375.69,-190.11"/>
<polygon fill="black" stroke="black" points="379.19,-190.1 375.69,-180.1 372.19,-190.1 379.19,-190.1"/>
</g>
<!-- gammasec -->
<g id="node13" class="node">
<title>gammasec</title>
<ellipse fill="none" stroke="black" cx="525.69" cy="-162" rx="59.59" ry="18"/>
<text text-anchor="middle" x="525.69" y="-158.3" font-family="Times,serif" font-size="14.00">gammasec</text>
</g>
<!-- gamma&#45;&gt;gammasec -->
<g id="edge12" class="edge">
<title>gamma&#45;&gt;gammasec</title>
<path fill="none" stroke="black" d="M403.91,-219.83C426.96,-209.08 459.83,-193.74 485.62,-181.7"/>
<polygon fill="black" stroke="black" points="487.18,-184.83 494.76,-177.43 484.22,-178.49 487.18,-184.83"/>
</g>
<!-- EM1 -->
<g id="node6" class="node">
<title>EM1</title>
<ellipse fill="none" stroke="black" cx="63.69" cy="-90" rx="32.49" ry="18"/>
<text text-anchor="middle" x="63.69" y="-86.3" font-family="Times,serif" font-size="14.00">EM1</text>
</g>
<!-- alphaprime&#45;&gt;EM1 -->
<g id="edge5" class="edge">
<title>alphaprime&#45;&gt;EM1</title>
<path fill="none" stroke="black" d="M63.69,-143.7C63.69,-135.98 63.69,-126.71 63.69,-118.11"/>
<polygon fill="black" stroke="black" points="67.19,-118.1 63.69,-108.1 60.19,-118.1 67.19,-118.1"/>
</g>
<!-- alphaprime&#45;&gt;betaprime -->
<g id="edge16" class="edge">
<title>alphaprime&#45;&gt;betaprime</title>
<path fill="none" stroke="black" stroke-dasharray="5,2" d="M103.57,-147.83C138.8,-136.2 190.27,-119.21 227.74,-106.84"/>
<polygon fill="black" stroke="black" points="229.03,-110.09 237.43,-103.64 226.83,-103.45 229.03,-110.09"/>
</g>
<!-- EM3 -->
<g id="node8" class="node">
<title>EM3</title>
<ellipse fill="none" stroke="black" cx="166.69" cy="-90" rx="32.49" ry="18"/>
<text text-anchor="middle" x="166.69" y="-86.3" font-family="Times,serif" font-size="14.00">EM3</text>
</g>
<!-- alphasec&#45;&gt;EM3 -->
<g id="edge7" class="edge">
<title>alphasec&#45;&gt;EM3</title>
<path fill="none" stroke="black" d="M189.43,-144.05C185.97,-135.97 181.75,-126.12 177.89,-117.11"/>
<polygon fill="black" stroke="black" points="181.05,-115.6 173.89,-107.79 174.61,-118.36 181.05,-115.6"/>
</g>
<!-- alphasec&#45;&gt;betaprime -->
<g id="edge17" class="edge">
<title>alphasec&#45;&gt;betaprime</title>
<path fill="none" stroke="black" stroke-dasharray="5,2" d="M214.62,-145.12C224.98,-135.94 238.19,-124.23 249.67,-114.06"/>
<polygon fill="black" stroke="black" points="252.13,-116.56 257.29,-107.31 247.49,-111.32 252.13,-116.56"/>
</g>
<!-- RM1 -->
<g id="node10" class="node">
<title>RM1</title>
<ellipse fill="none" stroke="black" cx="275.69" cy="-18" rx="32.49" ry="18"/>
<text text-anchor="middle" x="275.69" y="-14.3" font-family="Times,serif" font-size="14.00">RM1</text>
</g>
<!-- betaprime&#45;&gt;RM1 -->
<g id="edge9" class="edge">
<title>betaprime&#45;&gt;RM1</title>
<path fill="none" stroke="black" d="M275.69,-71.7C275.69,-63.98 275.69,-54.71 275.69,-46.11"/>
<polygon fill="black" stroke="black" points="279.19,-46.1 275.69,-36.1 272.19,-46.1 279.19,-46.1"/>
</g>
<!-- gammaprime&#45;&gt;betaprime -->
<g id="edge18" class="edge">
<title>gammaprime&#45;&gt;betaprime</title>
<path fill="none" stroke="black" stroke-dasharray="5,2" d="M352.5,-144.76C338.8,-135.18 321.29,-122.92 306.45,-112.53"/>
<polygon fill="black" stroke="black" points="308.27,-109.53 298.07,-106.67 304.26,-115.27 308.27,-109.53"/>
</g>
<!-- EM4 -->
<g id="node12" class="node">
<title>EM4</title>
<ellipse fill="none" stroke="black" cx="384.69" cy="-90" rx="32.49" ry="18"/>
<text text-anchor="middle" x="384.69" y="-86.3" font-family="Times,serif" font-size="14.00">EM4</text>
</g>
<!-- gammaprime&#45;&gt;EM4 -->
<g id="edge11" class="edge">
<title>gammaprime&#45;&gt;EM4</title>
<path fill="none" stroke="black" d="M377.92,-143.7C378.91,-135.98 380.1,-126.71 381.21,-118.11"/>
<polygon fill="black" stroke="black" points="384.69,-118.47 382.5,-108.1 377.75,-117.58 384.69,-118.47"/>
</g>
<!-- gammasec&#45;&gt;betaprime -->
<g id="edge19" class="edge">
<title>gammasec&#45;&gt;betaprime</title>
<path fill="none" stroke="black" stroke-dasharray="5,2" d="M483.57,-149.2C440.53,-137.15 373.63,-118.42 327.4,-105.48"/>
<polygon fill="black" stroke="black" points="328.15,-102.05 317.58,-102.73 326.26,-108.79 328.15,-102.05"/>
</g>
<!-- unlabeled1 -->
<g id="node14" class="node">
<title>unlabeled1</title>
<ellipse fill="none" stroke="grey" cx="525.69" cy="-90" rx="27" ry="18"/>
</g>
<!-- gammasec&#45;&gt;unlabeled1 -->
<g id="edge13" class="edge">
<title>gammasec&#45;&gt;unlabeled1</title>
<path fill="none" stroke="black" d="M525.69,-143.7C525.69,-135.98 525.69,-126.71 525.69,-118.11"/>
<polygon fill="black" stroke="black" points="529.19,-118.1 525.69,-108.1 522.19,-118.1 529.19,-118.1"/>
</g>
<!-- DL1 -->
<g id="node15" class="node">
<title>DL1</title>
<ellipse fill="none" stroke="black" cx="565.69" cy="-18" rx="29.8" ry="18"/>
<text text-anchor="middle" x="565.69" y="-14.3" font-family="Times,serif" font-size="14.00">DL1</text>
</g>
<!-- unlabeled1&#45;&gt;DL1 -->
<g id="edge14" class="edge">
<title>unlabeled1&#45;&gt;DL1</title>
<path fill="none" stroke="black" d="M534.97,-72.76C539.87,-64.19 545.98,-53.49 551.47,-43.9"/>
<polygon fill="black" stroke="black" points="554.54,-45.57 556.47,-35.15 548.47,-42.09 554.54,-45.57"/>
</g>
<!-- EM2 -->
<g id="node16" class="node">
<title>EM2</title>
<ellipse fill="none" stroke="black" cx="485.69" cy="-18" rx="32.49" ry="18"/>
<text text-anchor="middle" x="485.69" y="-14.3" font-family="Times,serif" font-size="14.00">EM2</text>
</g>
<!-- unlabeled1&#45;&gt;EM2 -->
<g id="edge15" class="edge">
<title>unlabeled1&#45;&gt;EM2</title>
<path fill="none" stroke="black" d="M516.42,-72.76C511.64,-64.4 505.7,-54.02 500.33,-44.61"/>
<polygon fill="black" stroke="black" points="503.2,-42.58 495.2,-35.63 497.12,-46.05 503.2,-42.58"/>
</g>
</g>
</svg>
