<?xml version="1.0" encoding="UTF-8" standalone="no"?>
<!DOCTYPE svg PUBLIC "-//W3C//DTD SVG 1.1//EN"
 "http://www.w3.org/Graphics/SVG/1.1/DTD/svg11.dtd">
<!-- Generated by graphviz version 2.43.0 (0)
 -->
<!-- Title: %3 Pages: 1 -->
<svg width="883pt" height="332pt"
 viewBox="0.00 0.00 882.59 332.00" xmlns="http://www.w3.org/2000/svg" xmlns:xlink="http://www.w3.org/1999/xlink">
<g id="graph0" class="graph" transform="scale(1 1) rotate(0) translate(4 328)">
<title>%3</title>
<polygon fill="white" stroke="transparent" points="-4,4 -4,-328 878.59,-328 878.59,4 -4,4"/>
<!-- omega_prime -->
<g id="node1" class="node">
<title>omega_prime</title>
<ellipse fill="none" stroke="grey" cx="494.3" cy="-306" rx="44.39" ry="18"/>
<text text-anchor="middle" x="494.3" y="-302.3" font-family="Times,serif" font-size="14.00">omega&#39;</text>
</g>
<!-- omega -->
<g id="node2" class="node">
<title>omega</title>
<ellipse fill="none" stroke="grey" cx="451.3" cy="-234" rx="41.69" ry="18"/>
<text text-anchor="middle" x="451.3" y="-230.3" font-family="Times,serif" font-size="14.00">omega</text>
</g>
<!-- omega_prime&#45;&gt;omega -->
<g id="edge1" class="edge">
<title>omega_prime&#45;&gt;omega</title>
<path fill="none" stroke="black" d="M484.11,-288.41C478.91,-279.95 472.49,-269.49 466.7,-260.08"/>
<polygon fill="black" stroke="black" points="469.63,-258.16 461.41,-251.47 463.67,-261.82 469.63,-258.16"/>
</g>
<!-- extra_ct -->
<g id="node3" class="node">
<title>extra_ct</title>
<ellipse fill="none" stroke="grey" cx="538.3" cy="-234" rx="27" ry="18"/>
<text text-anchor="middle" x="538.3" y="-230.3" font-family="Times,serif" font-size="14.00">?</text>
</g>
<!-- omega_prime&#45;&gt;extra_ct -->
<g id="edge2" class="edge">
<title>omega_prime&#45;&gt;extra_ct</title>
<path fill="none" stroke="black" d="M504.72,-288.41C510.12,-279.83 516.81,-269.19 522.79,-259.67"/>
<polygon fill="black" stroke="black" points="525.89,-261.32 528.25,-250.99 519.96,-257.59 525.89,-261.32"/>
</g>
<!-- alpha -->
<g id="node4" class="node">
<title>alpha</title>
<ellipse fill="none" stroke="grey" cx="296.3" cy="-162" rx="36.29" ry="18"/>
<text text-anchor="middle" x="296.3" y="-158.3" font-family="Times,serif" font-size="14.00">alpha</text>
</g>
<!-- omega&#45;&gt;alpha -->
<g id="edge3" class="edge">
<title>omega&#45;&gt;alpha</title>
<path fill="none" stroke="black" d="M423.59,-220.49C397.88,-208.88 359.5,-191.55 331.61,-178.95"/>
<polygon fill="black" stroke="black" points="332.78,-175.63 322.22,-174.71 329.89,-182.01 332.78,-175.63"/>
</g>
<!-- beta -->
<g id="node5" class="node">
<title>beta</title>
<ellipse fill="none" stroke="grey" cx="538.3" cy="-162" rx="31.4" ry="18"/>
<text text-anchor="middle" x="538.3" y="-158.3" font-family="Times,serif" font-size="14.00">beta</text>
</g>
<!-- omega&#45;&gt;beta -->
<g id="edge4" class="edge">
<title>omega&#45;&gt;beta</title>
<path fill="none" stroke="black" d="M470.17,-217.81C482.67,-207.75 499.21,-194.44 512.87,-183.46"/>
<polygon fill="black" stroke="black" points="515.34,-185.97 520.93,-176.97 510.95,-180.51 515.34,-185.97"/>
</g>
<!-- extra_ct&#45;&gt;beta -->
<g id="edge20" class="edge">
<title>extra_ct&#45;&gt;beta</title>
<path fill="none" stroke="black" d="M538.3,-215.7C538.3,-207.98 538.3,-198.71 538.3,-190.11"/>
<polygon fill="black" stroke="black" points="541.8,-190.1 538.3,-180.1 534.8,-190.1 541.8,-190.1"/>
</g>
<!-- Or711 -->
<g id="node6" class="node">
<title>Or711</title>
<ellipse fill="none" stroke="black" cx="40.3" cy="-90" rx="40.09" ry="18"/>
<text text-anchor="middle" x="40.3" y="-86.3" font-family="Times,serif" font-size="14.00">Or711</text>
</g>
<!-- alpha&#45;&gt;Or711 -->
<g id="edge5" class="edge">
<title>alpha&#45;&gt;Or711</title>
<path fill="none" stroke="black" d="M263.8,-153.56C222.84,-143.99 150.4,-126.39 89.3,-108 86.37,-107.12 83.36,-106.18 80.34,-105.2"/>
<polygon fill="black" stroke="black" points="81.34,-101.84 70.75,-102.01 79.13,-108.48 81.34,-101.84"/>
</g>
<!-- Vat142 -->
<g id="node7" class="node">
<title>Vat142</title>
<ellipse fill="none" stroke="black" cx="142.3" cy="-90" rx="43.59" ry="18"/>
<text text-anchor="middle" x="142.3" y="-86.3" font-family="Times,serif" font-size="14.00">Vat142</text>
</g>
<!-- alpha&#45;&gt;Vat142 -->
<g id="edge6" class="edge">
<title>alpha&#45;&gt;Vat142</title>
<path fill="none" stroke="black" d="M270.52,-149.28C245.67,-137.99 207.8,-120.77 179.65,-107.98"/>
<polygon fill="black" stroke="black" points="181.06,-104.78 170.51,-103.82 178.16,-111.15 181.06,-104.78"/>
</g>
<!-- gamma -->
<g id="node8" class="node">
<title>gamma</title>
<ellipse fill="none" stroke="grey" cx="248.3" cy="-90" rx="44.69" ry="18"/>
<text text-anchor="middle" x="248.3" y="-86.3" font-family="Times,serif" font-size="14.00">gamma</text>
</g>
<!-- alpha&#45;&gt;gamma -->
<g id="edge7" class="edge">
<title>alpha&#45;&gt;gamma</title>
<path fill="none" stroke="black" d="M285.16,-144.76C279.31,-136.23 272.01,-125.58 265.45,-116.02"/>
<polygon fill="black" stroke="black" points="268.24,-113.9 259.7,-107.63 262.47,-117.86 268.24,-113.9"/>
</g>
<!-- delta -->
<g id="node11" class="node">
<title>delta</title>
<ellipse fill="none" stroke="grey" cx="345.3" cy="-90" rx="34.39" ry="18"/>
<text text-anchor="middle" x="345.3" y="-86.3" font-family="Times,serif" font-size="14.00">delta</text>
</g>
<!-- alpha&#45;&gt;delta -->
<g id="edge10" class="edge">
<title>alpha&#45;&gt;delta</title>
<path fill="none" stroke="black" d="M307.66,-144.76C313.72,-136.11 321.31,-125.27 328.07,-115.6"/>
<polygon fill="black" stroke="black" points="331.13,-117.35 333.99,-107.15 325.39,-113.33 331.13,-117.35"/>
</g>
<!-- epsilon -->
<g id="node14" class="node">
<title>epsilon</title>
<ellipse fill="none" stroke="grey" cx="474.3" cy="-90" rx="44.39" ry="18"/>
<text text-anchor="middle" x="474.3" y="-86.3" font-family="Times,serif" font-size="14.00">epsilon</text>
</g>
<!-- alpha&#45;&gt;epsilon -->
<g id="edge13" class="edge">
<title>alpha&#45;&gt;epsilon</title>
<path fill="none" stroke="black" d="M324.11,-150.06C353.65,-138.44 400.64,-119.97 434.19,-106.77"/>
<polygon fill="black" stroke="black" points="435.67,-109.95 443.7,-103.03 433.11,-103.44 435.67,-109.95"/>
</g>
<!-- beta&#45;&gt;epsilon -->
<g id="edge21" class="edge">
<title>beta&#45;&gt;epsilon</title>
<path fill="none" stroke="black" stroke-dasharray="5,2" d="M524.41,-145.81C513.97,-134.39 499.69,-118.78 489.05,-107.13"/>
</g>
<!-- EMML2087 -->
<g id="node17" class="node">
<title>EMML2087</title>
<ellipse fill="none" stroke="black" cx="602.3" cy="-90" rx="65.79" ry="18"/>
<text text-anchor="middle" x="602.3" y="-86.3" font-family="Times,serif" font-size="14.00">EMML2087</text>
</g>
<!-- beta&#45;&gt;EMML2087 -->
<g id="edge16" class="edge">
<title>beta&#45;&gt;EMML2087</title>
<path fill="none" stroke="black" d="M552.18,-145.81C560.39,-136.84 570.96,-125.28 580.27,-115.09"/>
<polygon fill="black" stroke="black" points="582.93,-117.37 587.09,-107.63 577.76,-112.65 582.93,-117.37"/>
</g>
<!-- zeta -->
<g id="node18" class="node">
<title>zeta</title>
<ellipse fill="none" stroke="grey" stroke-dasharray="5,2" cx="716.3" cy="-90" rx="30.59" ry="18"/>
<text text-anchor="middle" x="716.3" y="-86.3" font-family="Times,serif" font-size="14.00">zeta</text>
</g>
<!-- beta&#45;&gt;zeta -->
<g id="edge17" class="edge">
<title>beta&#45;&gt;zeta</title>
<path fill="none" stroke="black" d="M564.06,-151.59C592.07,-141.26 638.08,-124.01 677.3,-108 679.14,-107.25 681.03,-106.46 682.94,-105.66"/>
<polygon fill="black" stroke="black" points="684.62,-108.75 692.45,-101.61 681.87,-102.31 684.62,-108.75"/>
</g>
<!-- Wien -->
<g id="node9" class="node">
<title>Wien</title>
<ellipse fill="none" stroke="black" cx="127.3" cy="-18" rx="34.39" ry="18"/>
<text text-anchor="middle" x="127.3" y="-14.3" font-family="Times,serif" font-size="14.00">Wien</text>
</g>
<!-- gamma&#45;&gt;Wien -->
<g id="edge8" class="edge">
<title>gamma&#45;&gt;Wien</title>
<path fill="none" stroke="black" d="M223.81,-74.83C205.01,-63.96 178.91,-48.86 158.59,-37.1"/>
<polygon fill="black" stroke="black" points="160.11,-33.94 149.71,-31.96 156.61,-40 160.11,-33.94"/>
</g>
<!-- dA36 -->
<g id="node10" class="node">
<title>dA36</title>
<ellipse fill="none" stroke="black" cx="214.3" cy="-18" rx="34.39" ry="18"/>
<text text-anchor="middle" x="214.3" y="-14.3" font-family="Times,serif" font-size="14.00">dA36</text>
</g>
<!-- gamma&#45;&gt;dA36 -->
<g id="edge9" class="edge">
<title>gamma&#45;&gt;dA36</title>
<path fill="none" stroke="black" d="M240.07,-72.05C236.1,-63.89 231.25,-53.91 226.84,-44.82"/>
<polygon fill="black" stroke="black" points="229.97,-43.25 222.45,-35.79 223.67,-46.31 229.97,-43.25"/>
</g>
<!-- CR -->
<g id="node12" class="node">
<title>CR</title>
<ellipse fill="none" stroke="black" cx="293.3" cy="-18" rx="27" ry="18"/>
<text text-anchor="middle" x="293.3" y="-14.3" font-family="Times,serif" font-size="14.00">CR</text>
</g>
<!-- delta&#45;&gt;CR -->
<g id="edge11" class="edge">
<title>delta&#45;&gt;CR</title>
<path fill="none" stroke="black" d="M333.24,-72.76C326.65,-63.89 318.36,-52.74 311.04,-42.89"/>
<polygon fill="black" stroke="black" points="313.71,-40.61 304.93,-34.67 308.09,-44.78 313.71,-40.61"/>
</g>
<!-- BtAdd -->
<g id="node13" class="node">
<title>BtAdd</title>
<ellipse fill="none" stroke="black" cx="378.3" cy="-18" rx="39.79" ry="18"/>
<text text-anchor="middle" x="378.3" y="-14.3" font-family="Times,serif" font-size="14.00">BtAdd</text>
</g>
<!-- delta&#45;&gt;BtAdd -->
<g id="edge12" class="edge">
<title>delta&#45;&gt;BtAdd</title>
<path fill="none" stroke="black" d="M353.12,-72.41C356.96,-64.25 361.69,-54.22 366.01,-45.07"/>
<polygon fill="black" stroke="black" points="369.2,-46.49 370.3,-35.96 362.87,-43.51 369.2,-46.49"/>
</g>
<!-- Vat232 -->
<g id="node15" class="node">
<title>Vat232</title>
<ellipse fill="none" stroke="black" cx="479.3" cy="-18" rx="43.59" ry="18"/>
<text text-anchor="middle" x="479.3" y="-14.3" font-family="Times,serif" font-size="14.00">Vat232</text>
</g>
<!-- epsilon&#45;&gt;Vat232 -->
<g id="edge14" class="edge">
<title>epsilon&#45;&gt;Vat232</title>
<path fill="none" stroke="black" d="M475.53,-71.7C476.08,-63.98 476.75,-54.71 477.36,-46.11"/>
<polygon fill="black" stroke="black" points="480.85,-46.33 478.07,-36.1 473.87,-45.83 480.85,-46.33"/>
</g>
<!-- VatOr -->
<g id="node16" class="node">
<title>VatOr</title>
<ellipse fill="none" stroke="black" cx="578.3" cy="-18" rx="37.89" ry="18"/>
<text text-anchor="middle" x="578.3" y="-14.3" font-family="Times,serif" font-size="14.00">VatOr</text>
</g>
<!-- epsilon&#45;&gt;VatOr -->
<g id="edge15" class="edge">
<title>epsilon&#45;&gt;VatOr</title>
<path fill="none" stroke="black" d="M496.1,-74.33C511.42,-64.02 532.08,-50.1 548.86,-38.81"/>
<polygon fill="black" stroke="black" points="550.89,-41.66 557.23,-33.18 546.98,-35.86 550.89,-41.66"/>
</g>
<!-- EMML2300 -->
<g id="node19" class="node">
<title>EMML2300</title>
<ellipse fill="none" stroke="black" cx="710.3" cy="-18" rx="65.79" ry="18"/>
<text text-anchor="middle" x="710.3" y="-14.3" font-family="Times,serif" font-size="14.00">EMML2300</text>
</g>
<!-- zeta&#45;&gt;EMML2300 -->
<g id="edge18" class="edge">
<title>zeta&#45;&gt;EMML2300</title>
<path fill="none" stroke="black" d="M714.81,-71.7C714.15,-63.98 713.36,-54.71 712.62,-46.11"/>
<polygon fill="black" stroke="black" points="716.1,-45.77 711.76,-36.1 709.13,-46.37 716.1,-45.77"/>
</g>
<!-- dA126 -->
<g id="node20" class="node">
<title>dA126</title>
<ellipse fill="none" stroke="black" cx="834.3" cy="-18" rx="40.09" ry="18"/>
<text text-anchor="middle" x="834.3" y="-14.3" font-family="Times,serif" font-size="14.00">dA126</text>
</g>
<!-- zeta&#45;&gt;dA126 -->
<g id="edge19" class="edge">
<title>zeta&#45;&gt;dA126</title>
<path fill="none" stroke="black" d="M737.12,-76.65C755.1,-65.98 781.38,-50.39 802.07,-38.12"/>
<polygon fill="black" stroke="black" points="804.03,-41.02 810.85,-32.91 800.46,-35 804.03,-41.02"/>
</g>
</g>
</svg>
